<svg width="77" height="62" viewBox="0 0 77 62" fill="none" xmlns="http://www.w3.org/2000/svg">
<path d="M75.9035 25.9171C75.4465 24.2079 74.6938 22.5918 73.6793 21.1422C74.0374 20.1113 74.1951 19.0214 74.1442 17.9313C73.9801 14.375 72.3551 12.4688 70.5067 11.4578C70.285 9.62264 69.3994 7.93201 68.0168 6.70492C66.6343 5.47784 64.8505 4.79915 63.002 4.7969H62.9535C61.341 2.67346 58.8192 1.42659 55.9285 1.42659C54.072 1.42363 52.2616 2.0047 50.7535 3.08753C50.3726 3.35577 49.91 3.48258 49.4456 3.44606C48.9812 3.40955 48.5441 3.212 48.2098 2.88753C46.291 1.03248 43.7256 -0.00309176 41.0567 2.65121e-05C39.9824 -0.00225569 38.913 0.142815 37.8782 0.431183H32.596C27.081 0.428063 21.6702 1.93389 16.9497 4.78557C12.2292 7.63153 8.4009 11.7436 5.89915 16.6552C0.235083 27.8003 0.0811134 41.0244 0.107738 43.5622L0.108348 43.628C0.107797 43.6671 0.109503 43.7062 0.113457 43.7451C0.0175702 44.4114 -0.0176523 45.0851 0.00822278 45.7578C0.0759259 47.4799 0.217738 49.9046 0.85766 51.6784C0.861551 51.6976 0.862567 51.7168 0.867598 51.7359C0.934785 51.9906 2.62541 57.9843 12.9207 60.6515C15.4528 61.3007 18.0568 61.6267 20.6707 61.6218C22.6525 61.6214 24.63 61.4394 26.5785 61.0781C33.9442 59.7062 43.5738 56.7187 52.3379 53.0859C61.9754 49.0906 69.3395 44.8625 73.0707 41.1859C75.0713 39.2407 75.9134 36.0002 75.6157 32.2141C76.2145 30.299 76.4755 28.1244 75.9035 25.9171ZM63.002 6.67182C64.2144 6.67172 65.3951 7.05942 66.3714 7.77826C67.3478 8.4971 68.0686 9.50937 68.4285 10.6671C68.6713 11.4476 68.7427 12.2714 68.6378 13.082C68.5329 13.8926 68.2542 14.671 67.8207 15.364C65.2652 12.5302 62.1566 10.2495 58.6863 8.66245C59.2189 8.03819 59.8805 7.53692 60.6256 7.19324C61.3707 6.84957 62.1814 6.67167 63.002 6.67182ZM12.2162 20.9159C12.2151 20.1149 12.3836 19.3226 12.7107 18.5913C13.0377 17.86 13.5159 17.2063 14.1137 16.673C14.7116 16.1398 15.4155 15.7392 16.1793 15.4975C16.943 15.2558 17.7493 15.1786 18.5451 15.2709C18.3609 15.8669 18.2463 16.4823 18.2035 17.1046C18.1463 17.9189 18.21 18.7372 18.3926 19.5328C18.4551 19.8055 18.4595 20.0883 18.4058 20.3629C18.352 20.6374 18.2412 20.8976 18.0805 21.1267C17.9198 21.3557 17.7129 21.5484 17.473 21.6924C17.2331 21.8364 16.9656 21.9284 16.6879 21.9625C15.4656 22.1131 14.0018 22.4566 12.696 23.1977C12.3791 22.4788 12.2157 21.7016 12.2162 20.9159ZM12.2879 50.5843C11.4935 50.3731 10.7544 49.9921 10.1216 49.4675C9.48878 48.9429 8.97731 48.2873 8.62248 47.5458C8.26765 46.8044 8.07791 45.9948 8.06636 45.1729C8.05481 44.351 8.22171 43.5363 8.55556 42.7852C8.88941 42.0341 9.38225 41.3643 10.0001 40.8222C10.6179 40.28 11.346 39.8783 12.1341 39.6449C12.9223 39.4114 13.7517 39.3518 14.5651 39.47C15.3785 39.5882 16.1566 39.8815 16.8457 40.3296C16.0457 42.9609 15.2895 45.4453 14.5332 47.4078C14.0602 48.6366 13.2885 49.7283 12.2879 50.5843ZM7.70989 17.5753C10.0399 13.002 13.6051 9.17326 18.001 6.52356C22.4044 3.86367 27.4516 2.45924 32.596 2.46236H34.0221C32.3394 3.90773 31.228 5.90636 30.8879 8.09839C30.8442 8.37113 30.7444 8.63185 30.5948 8.86409C30.4452 9.09633 30.2492 9.29506 30.019 9.44775C29.7888 9.60043 29.5295 9.70375 29.2573 9.75119C28.9852 9.79863 28.7062 9.78916 28.4379 9.72339C26.7168 9.28358 24.8995 9.4136 23.2586 10.094C21.6177 10.7743 20.2415 11.9684 19.3366 13.497C17.946 13.2263 16.5073 13.3523 15.1848 13.8604C13.8624 14.3686 12.7095 15.2384 11.8579 16.3706C11.0063 17.5029 10.4904 18.8518 10.369 20.2633C10.2476 21.6748 10.5256 23.092 11.1714 24.353C9.86383 25.6708 9.01369 27.6699 9.2926 30.7015C9.34729 31.2906 9.40979 31.8687 9.50979 32.4265C9.60074 32.9146 9.50617 33.419 9.2446 33.841C8.98303 34.263 8.57331 34.5721 8.09572 34.7078C5.80691 35.3373 3.78262 36.6891 2.32424 38.5621C2.72754 33.2654 3.97013 24.9342 7.70989 17.5753ZM71.6504 39.7343C65.352 45.9421 44.1285 55.7453 26.2067 59.0796C21.9697 59.8783 17.6096 59.7434 13.4301 58.6843C10.8723 58.0218 7.34104 56.7156 4.86447 54.2328C4.87854 54.2375 4.89416 54.2406 4.90822 54.2453C6.2931 54.577 7.73365 54.603 9.12957 54.3213C10.5255 54.0395 11.8432 53.4569 12.991 52.614C14.5441 51.4851 15.7374 49.931 16.427 48.139C17.1113 46.3671 17.7801 44.2281 18.477 41.9406C18.5832 41.589 18.691 41.2343 18.8004 40.8765C18.9098 40.5187 19.0192 40.1562 19.1317 39.7906C22.8723 27.5187 28.1754 11.4468 43.5332 8.84214C48.1457 8.05932 52.2848 8.49995 55.9067 9.75776C56.502 9.96245 57.0832 10.1901 57.6504 10.4406C61.1238 11.964 64.0676 14.2453 66.4442 16.8734C66.866 17.3406 67.2697 17.8177 67.6551 18.3046C68.8978 19.8711 69.9802 21.5582 70.8864 23.3406C74.2614 29.989 74.5848 36.8812 71.6504 39.7343Z" fill="#F9FADF"/>
<path d="M29.9703 34.7907C30.5345 34.7907 30.9919 34.0246 30.9919 33.0796C30.9919 32.1346 30.5345 31.3686 29.9703 31.3686C29.406 31.3686 28.9486 32.1346 28.9486 33.0796C28.9486 34.0246 29.406 34.7907 29.9703 34.7907Z" fill="#F9FADF"/>
<path d="M52.4162 21.5656C52.9804 21.5656 53.4378 20.7995 53.4378 19.8546C53.4378 18.9096 52.9804 18.1435 52.4162 18.1435C51.8519 18.1435 51.3945 18.9096 51.3945 19.8546C51.3945 20.7995 51.8519 21.5656 52.4162 21.5656Z" fill="#F9FADF"/>
<path d="M43.586 19.4188C44.1502 19.4188 44.6076 18.6527 44.6076 17.7077C44.6076 16.7628 44.1502 15.9967 43.586 15.9967C43.0217 15.9967 42.5643 16.7628 42.5643 17.7077C42.5643 18.6527 43.0217 19.4188 43.586 19.4188Z" fill="#F9FADF"/>
<path d="M61.0761 24.7783C61.7228 24.7783 62.2471 24.0122 62.2471 23.0672C62.2471 22.1223 61.7228 21.3562 61.0761 21.3562C60.4293 21.3562 59.905 22.1223 59.905 23.0672C59.905 24.0122 60.4293 24.7783 61.0761 24.7783Z" fill="#F9FADF"/>
<path d="M36.6306 27.329C37.2774 27.329 37.8017 26.563 37.8017 25.618C37.8017 24.673 37.2774 23.907 36.6306 23.907C35.9839 23.907 35.4596 24.673 35.4596 25.618C35.4596 26.563 35.9839 27.329 36.6306 27.329Z" fill="#F9FADF"/>
<path d="M45.9556 30.3421C46.6023 30.3421 47.1266 29.5761 47.1266 28.6311C47.1266 27.6861 46.6023 26.92 45.9556 26.92C45.3088 26.92 44.7845 27.6861 44.7845 28.6311C44.7845 29.5761 45.3088 30.3421 45.9556 30.3421Z" fill="#F9FADF"/>
</svg>
